<svg xmlns="http://www.w3.org/2000/svg" width="553" height="624"><path fill="#fbfbfb" d="M0 0h553v624H0z"/><path fill="#353557" d="m152.715 239.734 2.96-.005q3.075-.002 6.149.01c3.102.011 6.204 0 9.307-.012 21.495-.017 21.495-.017 28.869 2.273l2 2-3.019-.063c-26.075-.5-46.884.554-70.532 12.852-1.918.948-3.884 1.8-5.863 2.613C100.693 269.156 84.122 289 72 309l-1.562 2.418c-1.856 3.333-3.146 6.818-4.438 10.394l-1.5 4.083-.745 2.056a195 195 0 0 1-1.551 4.069C54.797 350.903 56.674 372.099 57 392l2.334-2.337C81.019 368 81.019 368 91 368v-2c12.73-6.138 25.805-9.39 39.674-11.623 23.168-3.214 23.168-3.214 44.326-12.377h4v-2c1.68-1.473 1.68-1.473 3.875-3.062l2.18-1.598C187 334 187 334 189 333c-.97 10.8-7.862 18.577-15.824 25.477-2.307 1.615-4.528 2.586-7.176 3.523v2c-5.665 3.089-10.509 5.577-17 6v2l-1.652.629c-8.603 3.515-15.974 8.717-21.348 16.371-1.728 4.304-2.272 7.936-2.25 12.563l-.016 3.316c.492 5.778 2.957 10.236 7.266 14.121 2.305 1.282 4.498 2.117 7 3v2l3.375.438C145 425 145 425 147 426c2.218.098 4.44.13 6.66.133l2.012.003q2.115 0 4.23-.006 3.192-.005 6.385.007c9.299.006 18.122-.033 27.025-3.012C209.23 418 209.23 418 215 418v-2q3.185-1.255 6.375-2.5l3.586-1.406C228 411 228 411 230 411v-2l2.86-1.469c23.543-12.226 42.746-29.109 61.452-47.719l2.283-2.268c4.103-4.115 8.046-8.312 11.825-12.725 9.112-10.49 19.699-18.932 32.314-24.76 2.185-.864 2.185-.864 3.266-2.059 17.404-4.067 36.812-5.55 54 0l2.168.667c2.408.74 4.809 1.5 7.207 2.27l2.273.73c4.84 1.627 8.967 3.72 13.352 6.333 2.27.76 2.27.76 4 1v2l2.633.742c3.618 1.352 6.169 3.06 9.242 5.383l2.93 2.195L444 341c-3.43 1.063-6.482 1.06-10.059.957l-3.61-.064a728 728 0 0 1-7.43-.196c-7.638-.11-13.916.817-21.13 3.361-2.46.836-4.706 1.342-7.271 1.692-8.998 1.843-17.276 8.874-24.5 14.25l3.375-1.25c12.751-4.106 24.502-6.14 37.938-6.25l3.5-.055c11.708.082 21.951 3.128 31.875 9.305l2.19 1.33c5.75 3.554 11.062 7.429 16.122 11.92l1.464 1.286c5.617 4.95 11.054 9.977 15.868 15.73 2.623 3.12 5.407 6.098 8.164 9.101C492 404 492 404 492 406c-2.914-.648-5.464-1.603-8.187-2.812-6.73-2.754-13.756-4.16-20.834-5.713-1.855-.445-3.682-1.01-5.502-1.58-3.866-.995-7.456-1.159-11.414-1.082l-2.128.021c-6.104.096-12.045.448-17.935 2.166v3l2.035.723c23.071 9.94 49.194 31.798 59.14 54.976 6.416 17.907 7.62 35.7 4.012 54.301l-.5 2.59c-.89 4.13-1.425 6.552-4.687 9.41l-1.031-3.078c-6.528-18.826-17.033-32.227-34.668-41.582C448 476 448 476 447 474c-8.321-3.566-17.079-4.13-26-5v3l2.18.785c14.445 6.222 28.161 20.845 34.07 35.34q.885 2.433 1.75 4.875l.836 2.02c4.35 10.574 4.432 21.383 4.289 32.668q-.016 2.092-.027 4.185A1881 1881 0 0 1 464 562h-2l.094 3.035c-.095 4.009-.702 7.5-1.594 11.403l-.844 3.746L459 583h4v-2l3.078-1.398C481.498 572.39 491.78 563.284 501 549l1.813-2.695c3.908-6.078 6.167-12.388 8.187-19.305h2a399 399 0 0 0 1.662-9.904q.347-2.15.727-4.293c2.382-13.598 2.91-27.033 2.923-40.803l.01-2.512c.029-11.963-.341-23.835-3.322-35.488-.122-2.675-.045-5.32 0-8h-2c-.315-1.267-.63-2.534-.953-3.84-3.114-12.401-3.114-12.401-8.047-24.16q-1.108-2.4-2.187-4.812l-.981-2.145c-.814-1.998-1.364-3.94-1.832-6.043h-2l-1.031-2.055C489.086 369.73 475.808 350.904 462 344v-2c6.465 1.243 10.495 4.393 15 9a363 363 0 0 0 4.5 3.5c9.962 7.892 18.657 16.767 25.5 27.5l1.61 2.266c3.158 4.472 5.459 8.838 7.335 13.984.9 2.345 1.893 4.581 2.946 6.86C525.95 420.906 529.44 437.78 530 455l.128 3.724c.503 16.23.083 31.493-4.128 47.276a288 288 0 0 0-1.25 6.688c-.15.849-.3 1.698-.453 2.574L524 517h-2l-.273 3.016c-.629 4.356-2.326 7.863-4.352 11.734l-1.09 2.12C506.346 552.922 492.105 571.42 473 582h-2v2c-2.039.82-4.081 1.63-6.125 2.438l-3.445 1.37c-3.172 1.102-6.11 1.753-9.43 2.192l.488-3.406c.762-6.89.698-13.81.697-20.732.002-2.357.02-4.713.04-7.069.028-7.506-.109-14.529-2.225-21.793l-.71-2.531A232 232 0 0 0 448 528l-.766-2.11c-2.938-7.319-7.586-13.572-12.234-19.89l-1.953-2.691c-2.241-2.528-4.342-3.885-7.297-5.497-2.703-1.48-2.703-1.48-4.75-2.812v-2l-2.133-.34c-3.145-.724-5.787-1.93-8.742-3.223-17.582-6.34-39.393-3.204-56.125 4.5-12.215 6.603-23.113 15.496-33.955 24.105-8.74 6.92-17.753 13.313-27.295 19.083l-1.953 1.184C286.254 541 286.254 541 284 541v2c-20.665 9.213-40.753 17.52-63 22l-3.71.75c-20.025 3.3-43.425 3.503-62.29-4.75v2l1.688.813C159 565 159 565 161.313 566.438c5.553 3.228 11.695 5.403 17.687 7.687.673.264 1.346.529 2.04.8 8.139 3.096 16.275 3.311 24.898 3.638l3.228.13q3.917.159 7.834.307c-2.864 3.274-4.695 4.523-9 5.125-3.87.544-7.702 1.192-11.543 1.91-23.904 3.99-45.315-.29-67.457-9.035l-3.43-1.344A477 477 0 0 1 119 573v-2l-2.25-.25c-3.294-.898-4.41-2.335-6.75-4.75-2.138-.787-2.138-.787-4-1v-2l-2.633-.742C82.661 554.523 64.686 529.404 54 511v-2h-2c-10.804-25.5-10.804-25.5-11.875-36.687-.741-6.495-3.511-11.323-6.662-16.929-3.681-6.58-6.165-13.19-8.463-20.384q-.842-2.5-1.687-5-.658-2-1.313-4l-1.012-2.719C13.864 399.627 18.357 372.86 22 349h2l.277-3.398c.641-5.074 2.349-9.52 4.285-14.227l1.083-2.654C36.575 312.12 46.635 298.038 59 285l2.555-2.715C72.335 271.145 86.307 258.14 102 255v-2c.592-.182 1.183-.364 1.793-.55l2.394-.762 2.356-.739c2.512-.885 2.512-.885 4.812-2.394 3.16-1.858 6.294-2.96 9.77-4.118l3.695-1.253c8.538-2.576 17.008-3.49 25.895-3.45"/><path fill="#373758" d="M220 23c4.267.578 5.761 2.62 8.363 5.825 3.076 4.087 5.894 8.336 8.7 12.613l1.814 2.736A624 624 0 0 1 249 60c2.416-.535 3.977-.985 6.063-2.375C263.274 53.082 272.75 51.792 282 53c4.195 1.32 8.077 3.023 12 5l2.34 1.164L298 60v2l1.688.75C302 64 302 64 304.563 66.063c2.357 2.1 2.357 2.1 5.437 2.937q1.683 1.734 3.363 3.469c2.022 1.891 4.152 3.52 6.387 5.156l2.36 1.727c7.182 4.096 13.774 5.083 21.952 4.835l2.624-.04c2.105-.035 4.21-.09 6.314-.147-8.316 8.35-15.738 10.509-27.53 10.575-7.079-.228-12.546-2.74-18.47-6.575 3.726 7.728 7.802 13.528 15.938 16.875 8.763 2.54 19.276 1.953 28.015-.363 11.787-2.947 25.118-2.084 37.047-.512v2l3.813 1.063c8.813 2.956 17.453 8.52 23.187 15.937v2c-4.23-1.27-7.995-2.93-11.875-5-9.384-4.416-20.858-4.252-30.898-1.969-4.765 2.073-8.907 6.329-11.227 10.969a117 117 0 0 0-.187 6.25l-.043 3.39c.235 3.438 1.002 6.155 2.23 9.36 5.078-.305 7.382-1.225 11.11-4.59 9.017-6.726 20.096-7.807 30.89-6.41 3.768 1.161 6.776 2.748 10 5l1.773 1.176c6.033 4.574 10.334 11.204 14.925 17.142 7.475 9.656 14.288 14.746 26.302 17.682 14.355 1.207 24.714-1.065 36-10l2 1c-7.474 9.57-18.612 18.374-31 20-14.907.785-27.539-.571-39.184-10.945A118 118 0 0 1 421 173c0 4.546 2.347 7.418 5 11 13.399 13.399 31.446 12.341 49.036 12.38 10.328.04 19.35.353 28.964 4.62l3.332 1.457c5.57 3.044 10.93 6.273 14.668 11.543v3c-7-2-7-2-10.254-3.055-3.949-.996-7.58-1.248-11.621-1.195l-2.248.012c-4.994.076-9.869.547-14.815 1.238-7.513 1.015-14.984 1.29-22.562 1.375l-3.328.078c-10.74.026-17.702-3.884-26.485-9.64a652 652 0 0 0-4.113-2.668l-1.794-1.177c-4.846-2.635-10.416-2.442-15.78-1.968-3.562 1.272-5.362 1.984-7.375 5.188L401 207l3.125-.187c6.793.328 10.524 3.485 15.063 8.312 3.386 3.739 3.386 3.739 7.812 5.875v2l4 1v2l1.695.406c3.261.84 6.46 1.868 9.672 2.875 10.31 2.815 23.273 3.885 33.07-.844l2.497-1.44C480 226 480 226 483 227c-3.286 3.523-6.897 6.236-10.812 9-.592.425-1.183.85-1.792 1.29C459.552 245 459.552 245 456 245l-1 3c-5.09 2.416-10.227 2.385-15.75 2.375l-2.698-.005c-8.978-.168-15.855-2.12-22.552-8.37 1.994 8.31 5.977 14.902 13.417 19.49 7.914 4.256 14.931 5.69 23.833 6.385l3.738.352q4.504.418 9.012.773v2l3.438.25c13.147 1.687 24.334 10.901 33.562 19.75l2.75 2.563c8.91 9.653 8.91 9.653 9.25 16.437l-2.625-2.312a184 184 0 0 0-7.957-6.465l-1.918-1.482a589 589 0 0 0-3.875-2.957c-1.578-1.216-3.107-2.495-4.625-3.784v-2c-.568-.182-1.137-.364-1.723-.55-3.764-1.226-7.466-2.476-11.09-4.075-8.412-3.629-19.114-3.69-28.019-1.762-8.92 3.648-16.255 11.31-23.16 17.82-2.058 1.606-3.457 2.16-6.008 2.567v2c-4.964 2.955-8.703 3.48-14.312 3.375l-2.268-.018c-5.632-.132-10.223-1.09-15.42-3.357v4h-3v-2c-6.458-1.103-12.898-1.326-19.437-1.562l-3.374-.131q-4.095-.159-8.189-.307v2l-2.633.516c-6.35 1.335-11.099 2.564-16.367 6.484l-3.562 1.125c-16.774 6.056-31.31 24.49-41.425 38.423-9.27 12.764-21.508 21.622-35.013 29.515l-2.464 1.446-2.349 1.339-2.082 1.187c-2.35 1.077-4.562 1.55-7.105 1.965l-1 3-6 1c1.486-4.172 3.553-7.629 6-11.312l2.125-3.239L246 378h2l.75-3.875c.76-3.462 1.78-6.562 3.188-9.812 4.931-11.833 9.742-32.496 5.05-45.012L256 317v-3c7.08 2.36 12.576 8.262 16.438 14.563 1.74 3.827 2.697 7.33 3.562 11.437h2l2 6 2-1c.082-2.98.14-5.957.188-8.937l.076-2.518c.071-6.114-1.135-10.857-3.264-16.545a771 771 0 0 1-2.937-10.668c-6.094-19.11-23.856-34.65-39.848-45.64C234 259 234 259 232 256c27.023 4.626 53.206 26.048 73.668 43.063 2.42 2.01 4.87 3.978 7.332 5.937-5.407-10.906-11.151-20.683-19-30l-2.246-2.707C286.405 266.086 280.497 260.972 274 256l-1.744-1.35c-8.368-6.444-16.777-11.966-26.256-16.65v-2l-2.18-.344c-2.982-.694-5.223-1.76-7.945-3.156-29.626-13.845-59.735-17.938-92.011-18.869l-2.944-.09q-2.73-.081-5.463-.137c-18.193-.523-30.857-8.148-43.387-21.084-18.892-21.173-18.892-21.173-18.574-34.226.64-2.657 1.333-3.437 3.504-5.094 2.752-.492 2.752-.492 6.066-.66l3.663-.217 3.834-.185c11.039-.58 21.131-1.327 31.437-5.563 5.82-2.375 5.82-2.375 8-2.375v-2l5-5c2.075-3.267 2.19-5.862 2.25-9.687.735-10.25 7.372-16.722 14.75-23.313 8.317-7 8.317-7 11-7l-.016-2.433c-.08-14.322-.099-28.627.453-42.942l.12-3.16c.249-5.862.726-11.64 1.443-17.465 3.235.702 4.892 1.365 7 4v2l1.758.754c7.866 4.371 13.548 14.16 18.804 21.246l1.916 2.574L196.254 64l1.604 2.188C199 68 199 68 199 70l-2.527.594c-10.747 2.856-17.116 7.234-22.973 16.719-1.462 2.586-2.558 4.862-3.5 7.687h2l.766-2.246c3.082-6.877 10.469-12.777 17.324-15.621 3.855-1.384 7.126-2.19 11.222-2.258 3.63-.455 3.63-.455 4.934-2.477 1.133-2.425 1.955-4.843 2.754-7.398l1.02-2.855c2.415-7.138 3.759-14.245 4.902-21.664C217.226 25.774 217.226 25.774 220 23"/><path fill="#abaab4" d="M262.212 71.604c6.216.109 12.07 1.326 18.1 2.771l2.804.67c6.606 1.677 6.606 1.677 8.884 3.955-2.982 2.982-5.01 4.29-9.187 4.312C279 83 279 83 277 82l.875 1.898L279 86.375l1.125 2.46C281 91 281 91 281 93l3 1a96 96 0 0 1 3.563 5.125c4.074 5.764 8.39 9.322 14.437 12.875l2.027 1.242c13.464 7.544 32.44 5.95 46.973 2.758v-2h3c-2.715 7.898-6.876 14.23-14.312 18.25-3.666 1.023-6.887.879-10.688.75 10.937 16.824 10.937 16.824 27 27 8.61 1.065 15.225.176 22.89-3.906C381 155 381 155 383 155v-2c5.455-1.385 10.367-2.24 16-2-1.59 3.18-4.844 3.758-8 5l-2.937 1.187L386 158v2a203 203 0 0 1-5 5 780 780 0 0 0-3.944 4.403c-11.997 13.453-11.997 13.453-19.556 14.472L354 184c4.39 4.107 9.14 3.53 14.816 3.367 7.664-.493 14.94-2.952 22.184-5.367a163 163 0 0 1 6.688-.063l3.574.028L404 182l1 3-3.105.55-4.082.762-2.042.358c-6.922 1.317-11.14 4.073-15.771 9.33-2.548 4.367-2.563 9.074-2 14 .815 2.559.815 2.559 3 4 5.787 2 11.362 2.291 17.46 2.46 2.54.54 2.54.54 3.892 2.58L403 221l-2.047.297c-5.627.896-5.627.896-10.515 3.64-3.018 4.33-2.996 8.979-2.438 14.063 1.117 4.083 2.557 8.023 4 12a234 234 0 0 1 2 7h2c1.262 1.54 1.262 1.54 2.688 3.625 2.586 3.579 5.304 6.314 8.738 9.07C409 272 409 272 410.813 274.125c3.543 3.037 7.847 4.283 12.187 5.875q2.504.992 5 2v2c-5.24 2.341-10.518 4.3-16 6l-3.129 1.078c-4.85 1.155-9.344 1.177-14.308 1.11l-2.737-.002c-14.56-.095-14.56-.095-17.638-2.749-1.36-2.791-2.403-5.634-3.442-8.558-.913-2.3-2.196-3.957-3.746-5.879-1.997-3.23-3.794-6.381-5-10l2.344-.113c6.478-.41 11.715-1.26 17.656-3.887-3.097-2.064-6.188-3.496-9.562-5.063-11.15-5.434-24.019-15.96-28.438-27.937l1-3 2.063 1.812c5.611 4.18 10.46 5.872 17.433 5.68 4.364-.858 7.42-3.386 10.504-6.492l2-3-1.57.984c-3.201 1.338-5.843 1.28-9.305 1.266l-3.617.016c-3.521-.267-6.263-.89-9.508-2.266l-1-2-2.187-1.125c-4.498-2.998-8.079-6.815-9.368-12.188-.28-4.866.588-7.69 3.944-11.479 3.035-2.277 6.287-1.836 9.924-1.583l2.244.082c1.815.07 3.63.178 5.443.293v2l2.875.437C368 198 368 198 370 199c-1.463-3.59-1.817-3.918-5.625-5.625-5.836-1.755-11.86-2.3-17.898-2.945C343 190 343 190 340 189v-2l-3.187-.188c-4.613-.982-5.798-2.256-8.813-5.812l-1.57-1.746C320 172.032 320 172.032 320 167l3.762.07q2.463.029 4.926.055l2.474.05c4.354.036 7.938.025 11.838-2.175l1-2-2.93.14c-8.256.23-14.645-.276-22.07-4.14-.904-.4-1.807-.802-2.738-1.215-8.833-4.214-13.918-10.77-19.262-18.785v-3c1.247-.2 1.247-.2 2.52-.402l3.293-.536 3.269-.527c2.967-.474 2.967-.474 5.918-1.535 1.209-2 1.209-2 2-4l-2.309.105c-8.175.215-14.689-.408-21.566-5.043-1.994-1.935-3.672-3.692-5.125-6.062v-3l-4-1-1-4h-2l-2-10-2.312 2.062L271 104l-3-1v-2l-3-1c-.914-1.742-.914-1.742-1.625-3.875l-.727-2.117L262 92l-1-3h-2l-2-7h-2c-1.498-3.371-2-5.204-2-9 2.172-2.172 6.292-1.365 9.212-1.396"/><path fill="#f8f8f9" d="M481 74h1a1976 1976 0 0 1 1 72l38 1v66l-8-6a132 132 0 0 0-7.062-3.75l-3.473-1.734c-6.5-2.844-12.194-3.805-19.188-3.825l-5.072-.076a2155 2155 0 0 0-7.87-.071c-15.625-.135-31.204-.276-43.397-11.43-4.095-4.343-6.21-8.424-7.938-14.114 3.079 1.38 5.243 3.001 7.688 5.313 8.765 7.806 18.09 11.092 29.75 11l2.264-.018c5.586-.123 10.24-.804 15.298-3.295l2.664-1.254c6.54-3.306 12.373-7.305 17.336-12.746v-2l-1.8 1.426c-10.657 8.005-20.963 9.812-34.2 8.574-15.725-3.252-24.062-13.812-33.414-26-6.082-7.67-13.372-14.218-23.313-15.469-8.598-.069-14.857.83-22.796 4.375C376 143 376 143 374 143l-1 3c-3.196 2.034-5.06 3.102-8.875 2.688L362 148c-2.362-6.37-3.1-12.264-2-19 1.886-3.248 4.182-5.55 7-8l1.465-1.637c5.415-4.809 16.214-3.78 22.922-3.68 5.135.45 9.073 1.968 13.613 4.317l2.832 1.379c2.404 1.18 4.79 2.387 7.168 3.621l-1.531-1.54-1.969-2.085-1.969-2.04C408 117 408 117 408 111h35v35l38 1-.562-16.812c-.559-18.766-.212-37.435.562-56.188"/><path fill="#eee" d="M416 491c1.663.675 3.329 1.345 5 2v2l2.125.75c6.21 2.7 10.092 6.275 14 11.625l1.262 1.672c7.556 10.091 7.556 10.091 9.176 14.765l.718 2.055L449 528l.781 2.195c.789 2.264 1.55 4.503 2.219 6.805l1.078 3.676c1.473 6.79 1.183 13.769 1.128 20.682-.019 2.4-.02 4.8-.02 7.2l-.018 4.614-.003 2.156c-.035 3.678-.294 7.094-1.165 10.672h-1l1-24-10 2v-39h-73c.04 23.227.04 23.227.09 46.455.025 17.541-.145 35.023-1.09 52.545h-1c-1.002-20.753-1.127-41.459-1.069-62.23.013-4.904.017-9.808.023-14.712.01-7.353.029-14.705.046-22.058h-34v35h-1v-35h-22c29.306-24.587 66.074-52.769 106-34"/><path fill="#fdfdfd" d="M482 412h28c3.375 10.125 3.375 10.125 3 14h2c2.622 11.997 3.422 23.478 3.281 35.745a909 909 0 0 0-.047 8.423q-.014 2.681-.03 5.363l-.014 2.54c-.073 5.812-.073 5.812-1.19 6.929a91 91 0 0 1-5.129.098l-3.135-.01-3.298-.026-3.311-.013q-4.064-.018-8.127-.049l-.586-3.36-.789-4.39-.383-2.21c-.666-3.664-1.406-6.796-3.242-10.04l-.875-3.187c-1.527-5.176-3.714-9.992-6.125-14.813a197 197 0 0 1-.098-7.852l.005-2.345c.005-2.476.018-4.952.03-7.428q.009-2.515.014-5.031c.01-4.115.03-8.23.049-12.344"/><path fill="#3f3f5f" d="M462 342c6.465 1.243 10.495 4.393 15 9a363 363 0 0 0 4.5 3.5c9.962 7.892 18.657 16.767 25.5 27.5l1.61 2.266c3.158 4.472 5.459 8.838 7.335 13.984.9 2.345 1.893 4.581 2.946 6.86C525.95 420.906 529.44 437.78 530 455l.128 3.724c.503 16.23.083 31.493-4.128 47.276a288 288 0 0 0-1.25 6.688c-.15.849-.3 1.698-.453 2.574L524 517h-2l-.273 3.016c-.629 4.356-2.326 7.863-4.352 11.734l-1.09 2.12C506.346 552.922 492.105 571.42 473 582h-2v2h-2l-1-5 2.746-1.469C484.166 570.216 492.612 561.67 501 549l1.824-2.703c3.894-6.081 6.157-12.384 8.176-19.297h2a399 399 0 0 0 1.662-9.904q.347-2.15.727-4.293c2.382-13.598 2.91-27.033 2.923-40.803.006-1.244.006-1.244.01-2.512.029-11.963-.341-23.835-3.322-35.488-.122-2.675-.045-5.32 0-8h-2c-.315-1.267-.63-2.534-.953-3.84-3.114-12.401-3.114-12.401-8.047-24.16q-1.108-2.4-2.187-4.812l-.981-2.145c-.814-1.998-1.364-3.94-1.832-6.043h-2l-1.031-2.055C489.086 369.73 475.808 350.904 462 344z"/><path fill="#f0f0f0" d="M142 262h3v37l2 1-1 1c-.16 2.446-.26 4.868-.316 7.316-.02.648-.038 1.296-.057 1.963-.068 2.428-.128 4.856-.19 7.284L145 334h35v-35h2v35h5c-4.625 4.875-4.625 4.875-8 6v2c-5.316 2.047-10.65 4.04-16 6l-3.078 1.148c-7.558 2.582-15.24 3.881-23.11 5.164l-3.407.558-3.198.493-2.891.447C125 356 125 356 123 355c1.575-1.575 3.407-1.618 5.563-2.062l2.503-.536c3.614-.495 7.287-.402 10.934-.402v-53h-35l-1 3-1-3-27 1c2.254-5.634 2.254-5.634 4.688-8.453l1.603-1.864L86 287.75l1.754-2.003C93.612 279.151 99.879 273.232 107 268l2 1-1 1c-.158 1.998-.251 4-.316 6.004l-.116 3.315-.13 4.243L107 297h35z"/><path fill="#fcfcfc" d="m390.688 485.875 3.166-.012 3.033.004 2.756.004C402 486 402 486 405 487v36l-17.437.063-5.51.027-4.3.008-2.274.015c-1.826 0-3.653-.05-5.479-.113-2.67-2.67-1.274-10.263-1.295-14.1a534 534 0 0 0-.105-6.578 1726 1726 0 0 1-.026-4.185l-.044-3.853c.55-3.84 1.409-4.985 4.47-7.284 5.634-1.66 11.856-1.147 17.688-1.125"/><path fill="#e5e5e9" d="M356 307c3.854-.058 7.708-.094 11.563-.125l3.29-.05c5.792-.036 10.688.186 16.147 2.175v2h3v-4l3.625.938c6.383 1.44 12.857 1.71 19.375 2.062v1h-5c.07 3.075.248 6.011 1 9 2.39 2.139 2.39 2.139 5 3-2 1-2 1-4.8.11l-3.512-1.36c-19.857-7.28-44.79-9.66-64.926-1.426-2.705 1.426-5.222 2.978-7.762 4.676l-2.137 1.23c-11.68 7.017-21.227 17.92-30.375 27.868C289.698 365.804 278.645 377.287 266 387q-2.814 2.28-5.625 4.563C256.127 395 256.127 395 255 395v-7l-3-1 1.538-.927c16.28-9.877 30.973-20.043 41.837-36.01C306.549 334.437 321.951 320.027 340 313l3.5-1.687c4.18-1.568 8.071-2.022 12.5-2.313z"/><path fill="#fefefe" d="m493.39 223.512 3.908.038 4.952.137L518 224v35h-36l-.25-14.687-.11-4.609-.03-3.653-.064-3.73c1.035-7.567 4.693-8.951 11.845-8.81"/><path fill="#fcfcfd" d="M482 149h36v36h-36c2.416-4.832 5.052-8.321 9.25-11.687L494 171v-2l-1.355 1.094-1.832 1.406-1.793 1.406C487 174 487 174 482 174z"/><path fill="#fefefe" d="m145 374 16.938-.062 5.35-.028 4.177-.008 2.209-.015c1.776 0 3.551.05 5.326.113 1 1 1 1 1.114 4.235q0 2.15-.016 4.3l-.003 2.022c-.006 2.502-.02 5.004-.032 7.505L180 409h-35zM220 299l16.938-.062 5.35-.028 4.177-.008 2.209-.015c1.776 0 3.551.05 5.326.113 1 1 1 1 1.114 4.235q0 2.15-.016 4.3l-.003 2.022c-.006 2.502-.02 5.004-.032 7.505L255 334h-35zM145 262h35l.063 16.938.027 5.35.008 4.177.015 2.209c0 1.776-.05 3.551-.113 5.326-1 1-1 1-4.235 1.114q-2.15 0-4.3-.016l-2.022-.003c-2.502-.006-5.004-.02-7.506-.033L145 297zM454.414 298.902l1.96.003c2.417.006 4.834.02 7.251.033L480 299v35h-35v-34c3.012-1.506 6.113-1.122 9.414-1.098M150.256 298.773q2.079 0 4.158.032l1.96.006c2.417.01 4.834.038 7.251.064L180 299v35h-35l-.125-16.375-.055-5.166q-.009-2.022-.015-4.045l-.031-2.128c-.001-1.764.103-3.527.226-5.286 2-2 2-2 5.256-2.227"/><path fill="#fbfbfc" d="M180 0h2v34h34c-3.333 33.333-3.333 33.333-11 41-1.493.326-2.995.61-4.5.875q-2.751.554-5.5 1.125l-2.277.445C183.524 79.807 176.739 87.083 172 95h-2c1.175-8.361 7.468-15.34 13.813-20.594C188.39 71.463 193.577 70 199 70c-8.162-13.019-18.082-25.202-29-36 2-1 2-1 9-1z"/><path fill="#fefefe" d="m182 299 16.938-.062 5.35-.028 4.177-.008 2.209-.015c1.776 0 3.551.05 5.326.113 1 1 1 1 1.114 4.235q0 2.15-.016 4.3l-.005 2.283c-.005 2.415-.018 4.83-.03 7.245q-.008 2.45-.014 4.9c-.01 4.012-.03 8.025-.049 12.037h-26v-4l-2 1-1 3h-6zM408 0h35v34h-35zM370 0h35v34h-35zM333 0h35v34h-35z"/><path fill="#fdfdfe" d="M130.438 261.813 142 262v35h-35l-.25-13.187-.11-4.134-.03-3.284-.064-3.349c.56-3.762 1.822-5.351 4.454-8.046 6.224-3.77 12.326-3.35 19.438-3.187"/><path fill="#fefefe" d="M220 337h35l.25 10.375.11 3.205c.094 8.168-1.824 14.616-6.36 21.42-2.89.34-2.89.34-6.54.293l-3.552-.023-4.533-.082L220 372zM145 0h35l.063 16.438.027 5.193.008 4.053.015 2.143c0 1.725-.05 3.45-.113 5.173-1 1-1 1-4.125 1.25-4.414-.285-6.945-1.325-10.875-3.25l-1 3h-19z"/><path fill="#fdfdfd" d="M330 524v36h-35l-.25-10.625-.11-3.315c-.067-5.863.245-9.525 4.36-14.06 2.184-1.828 2.184-1.828 4.438-3.25.74-.48 1.482-.96 2.246-1.453C314.55 522.333 317.72 524 330 524"/><path fill="#fefefe" d="m524.96 35.886 3.919.016 3.807.008 4.876.027L553 36v36l-15.438.062-4.876.028-3.807.008-3.92.016C522 72 522 72 521 71c-.1-2.51-.14-4.99-.133-7.5l-.003-2.275q0-2.385.006-4.772c.005-2.443 0-4.885-.007-7.328q0-2.313.004-4.625l-.006-2.229c.029-6.228.029-6.228 4.098-6.385M182 224q7.236-.036 14.471-.055 2.464-.008 4.927-.02c2.356-.013 4.711-.018 7.067-.023l2.238-.015c1.766 0 3.532.051 5.297.113 1 1 1 1 1.114 4.235q0 2.15-.016 4.3l-.003 2.022c-.006 2.502-.02 5.004-.032 7.506L217 259h-35v-15l18-1c-4.02-2.01-6.838-2.553-11.25-3.125L182 239z"/><path fill="#fdfdfd" d="M295 36h35l.063 17.438.027 5.509.008 4.3.015 2.274c0 1.826-.05 3.653-.113 5.479-1 1-1 1-2.766 1.114l-2.27-.016-2.45-.01-2.577-.025-2.587-.014q-3.175-.02-6.35-.049l-1-3a79 79 0 0 0-4-1c-2.14-1.34-2.14-1.34-4.25-2.937l-2.14-1.59L298 62v-2h-2c-1.252-2.505-1.114-4.209-1.098-7.008l.008-2.692.027-3.425z"/><path fill="#fefefe" d="M521 337h32v35h-32zM521 262h32v35h-32zM521 74h32v35h-32zM521 375h32v35c-7.363.03-7.363.03-14.875.063l-4.69.027-3.677.008-3.777.016C523 410 523 410 521 409zM525.981 561.773c1.246.01 2.493.02 3.777.032l3.676.015 4.691.055L553 562v35h-32c-.046-4.663-.086-9.326-.11-13.99q-.015-2.38-.04-4.76c-.025-2.279-.036-4.557-.045-6.836l-.032-2.156c0-1.754.105-3.508.227-5.258 2-2 2-2 4.981-2.227M525.981 298.773c1.246.01 2.493.02 3.777.032l3.676.015 4.691.055L553 299v35h-32c-.046-4.663-.086-9.326-.11-13.99q-.015-2.38-.04-4.76c-.025-2.279-.036-4.557-.045-6.836l-.032-2.156c0-1.754.105-3.508.227-5.258 2-2 2-2 4.981-2.227"/><path fill="#fdfdfe" d="M220 262c19.152-.937 19.152-.937 24.313 3.188A113 113 0 0 1 248 269q1.73 1.399 3.5 2.75c2.682 2.414 3.405 3.738 3.63 7.319l.003 2.345.004 2.555-.012 2.656.012 2.68-.004 2.547-.004 2.338C255 296 255 296 254 297c-2.52.088-5.015.115-7.535.098l-2.022-.003c-2.502-.006-5.004-.02-7.506-.033L220 297z"/><path fill="#fdfdfd" d="M69 337h36v24c-11.75 5-11.75 5-14 5v2l-3.375 1.438c-1.892.815-3.782 1.64-5.625 2.562-2.019.096-4.041.13-6.062.125l-3.286.008C70 372 70 372 69 371a178 178 0 0 1-.098-7.535l.003-2.022c.006-2.502.02-5.004.032-7.505zM483 337h35v35c-16.113 1.764-16.113 1.764-21.356-1.44-5.132-4.248-10.633-9.538-13.644-15.56a61 61 0 0 1-.098-4.133l.008-2.2.027-2.792z"/><path fill="#fefefe" d="M521 0h32v34h-32z"/><path fill="#fdfdfd" d="M370 74h35v35c-12-1-12-1-17-3v-2l-3.375-.375c-4.908-.663-9.768-1.654-14.625-2.625z"/><path fill="#fafafb" d="M409 123h-2v14l3 1-2 1-3-1c-9.812-.804-17.455-.144-26.523 3.906C376 143 376 143 374 143l-1 3c-3.196 2.034-5.06 3.102-8.875 2.688L362 148c-2.362-6.37-3.1-12.264-2-19 1.886-3.248 4.182-5.55 7-8l1.465-1.637c9.986-8.868 31.193-3.723 40.535 3.637"/><path fill="#fefefe" d="M0 36h29v36H0z"/><path fill="#fbfbfb" d="M445 149h36v27c-11.582 4.343-21.185 4.253-32.805.07C446 175 446 175 445 173c-.085-1.813-.107-3.63-.098-5.445l.008-2.938.027-3.742z"/><path fill="#fefefe" d="M0 487h29v35H0zM0 262h29v35H0zM0 187h29v35H0zM0 149h29v35H0zM0 112h29v35H0zM0 74h29v35H0zM0 562l13.938-.062 4.402-.028 3.437-.008 3.54-.016C28 562 28 562 29 563c.088 2.52.115 5.014.098 7.535l-.005 2.283c-.005 2.415-.018 4.83-.03 7.245q-.009 2.45-.014 4.9c-.01 4.012-.03 8.025-.049 12.037H0zM0 0h29v34H0z"/><path fill="#fbfbfc" d="M483 262h35v35c-12 0-12 0-14.812-2.062L501 292a110 110 0 0 0-3.125-3.375l-1.762-1.84c-2.498-2.11-5.12-3.282-8.05-4.723L483 278zM0 335h27c-2 10-2 10-3 14h-2c.03 1.125.062 2.25.094 3.41 0 3.917-.507 7.589-1.161 11.443C18.256 379.834 18.713 395.856 19 412h-1c-1.088-7.873-1.115-15.623-1.062-23.562l.013-3.924q.02-4.758.049-9.514H0z"/><path fill="#fbfbfb" d="M368 490v33h-36c0-13.558 0-13.558 3.418-17.529 2.817-2.62 5.83-4.74 9.082-6.784l1.973-1.298C352.972 493.18 360.119 490 368 490"/><path fill="#fcfcfd" d="M220 227c8.995 1.124 8.995 1.124 11.703 2.594l1.781.933 1.766.973c5.146 2.836 5.146 2.836 10.75 4.5v2l2.813.875C252 240 252 240 255 242c.22 2.95.28 5.684.188 8.625l-.042 2.43A539 539 0 0 1 255 259c-2.522.082-5.04.14-7.562.188l-2.135.076c-5.183.071-8.666-.942-13.303-3.264v3h-12z"/><path fill="#fbfbfc" d="M407 490q2.155.211 4.309.434l2.423.243c2.64.376 4.872 1.164 7.268 2.323v2l2.125.75c6.1 2.652 10.192 6.27 14.188 11.438l1.337 1.595c3.516 4.506 4.174 8.57 4.35 14.217q-7.449.037-14.899.055-2.535.008-5.072.02c-2.425.013-4.85.018-7.275.023l-2.304.015c-1.817 0-3.634-.051-5.45-.113-1-1-1-1-1.114-4.051q0-2.024.016-4.047l.005-2.148c.005-2.272.018-4.544.03-6.817q.009-2.306.014-4.61.017-5.664.049-11.327"/><path fill="#fafafb" d="M443 299v35c-7.41 0-9.753-.323-16-3v-2l-2.57-.281c-6.265-1.313-11.649-4.543-16.43-8.719-1.079-3.25-.888-5.72 0-9l2.3-.621 3.012-.817 2.989-.808A121 121 0 0 0 422 307v-2c7.691-5.724 10.876-6 21-6"/><path fill="#fbfbfc" d="M220 375h27c-.847 3.388-1.487 5.068-3.285 7.89l-1.358 2.15-1.42 2.21-1.431 2.258A1507 1507 0 0 1 236 395c2.02-.602 4.021-1.273 6-2l1-2c4.122-2.06 7.362-3.422 12-3 .625 3.063.625 3.063 0 7-2.941 2.954-6.416 4.907-10 7l-3.137 1.996-3.238 1.942-2.96 1.777C232 409 232 409 220 409z"/><path fill="#fefefe" d="M483 600h35v24h-35zM408 600h35v24h-35zM370 600h35v24h-35zM333 600h35v24h-35zM295 600h35v24h-35zM220 600h35v24h-35zM182 600h35v24h-35zM145 600h35v24h-35zM107 600h35v24h-35zM32 600h35v24H32z"/><path fill="#f9f9fa" d="M442 339c2.438.813 2.438.813 5 2l1 3h-3v18c-4.009-1.336-7.937-2.71-11.875-4.219L431 357l-2.753-1.028c-5.432-1.626-10.863-1.354-16.497-1.347l-3.778.003c-11.329.144-22.366 1.3-32.765 6.071C372 362 372 362 369 361c3.63-2.72 7.299-5.378 11-8l2.43-1.727c7.051-4.63 14.463-6.345 22.57-8.273l3.26-1.042c3.903-1 7.183-1.187 11.205-1.153l2.055.008c2.14.011 4.278.036 6.418.062q2.192.016 4.384.027 5.34.035 10.678.098z"/><path fill="#fcfcfc" d="m493.836 523.902 3.223.01 3.316.025 3.387.014q4.119.018 8.238.049a831 831 0 0 1-.898 4.234l-.506 2.382c-2.23 8.915-7.572 16.81-12.596 24.384l-1.5 2.89C494 560 494 560 482 560v-35c4.246-.708 7.63-1.12 11.836-1.098"/><path fill="#fcfcfd" d="M107 567c4.6.92 7.797 2.104 12 4v2l3.125.625c4.28 1.056 8.273 2.7 12.313 4.438l1.9.816c4.521 1.98 4.521 1.98 5.662 3.121v15h-35z"/><path fill="#fefefe" d="M521 600h32v24h-32z"/><path fill="#fdfdfd" d="M107 224h35v17l-5.5 1.188c-5.493 1.264-10.87 2.758-16.25 4.437l-2.13.66c-3.326.871-3.326.871-6.12 2.715h-5z"/><path fill="#fafafb" d="M32 487h11l1.3 2.617a445 445 0 0 0 3.305 6.453l1.583 3.055 1.605 3.07C52 505 52 505 52 509h2c1.254 1.54 1.254 1.54 2.563 3.625l1.316 2.04C59 517 59 517 60 523H32z"/><path fill="#fefefe" d="M0 600h29v24H0z"/><path fill="#f9f9fa" d="m413.75 198.75 2.484-.078c6.408.76 11.491 4.289 16.704 7.828 4.868 3.228 9.45 5.816 15.062 7.5l-3 1v14c5.884.857 11.56 1.125 17.5 1.063l2.492-.014q3.004-.02 6.008-.049c-2.61 2.61-4.462 2.258-8.018 2.278l-2.42-.028-2.468-.02c-9.902-.17-18.22-1.716-27.094-6.23v-2l-4-1v-2l-1.691-.191c-4.215-1.477-6.79-5.257-9.774-8.461-3.688-3.416-6.852-4.642-11.848-4.473L400 208c.335-3.13 1-4 3.375-6.187 3.518-2.43 6.19-2.985 10.375-3.063"/><path fill="#fbfbfc" d="M481 231v29h-36v-10l7.422-1.953c2.977-1.209 4.36-2.755 6.578-5.047a93 93 0 0 1 5.313-2.875c4.294-2.245 7.726-4.606 11.152-8.023C477 231 477 231 481 231"/><path fill="#fcfcfc" d="M145 36h19c.046 4.163.086 8.325.11 12.488a814 814 0 0 0 .04 4.242c.025 2.04.037 4.08.045 6.122l.032 3.713c-.23 3.473-.976 6.201-2.227 9.435q-3.97.04-7.937.063l-2.288.025A183 183 0 0 1 146 72c-1-1-1-1-1.114-4.326q0-2.214.016-4.428l.005-2.35c.005-2.486.018-4.972.03-7.459q.008-2.522.014-5.044c.01-4.131.03-8.262.049-12.393"/><path fill="#fafafb" d="M257 36h36v20l-4.687-1c-10.448-1.889-20.808-1.012-31.313 0z"/><path fill="#e9e9ea" d="M27 441c2.361 2.361 3.038 4.331 4.25 7.438 1.7 4.239 3.585 8.088 5.938 12 2.85 5.047 3.659 9.55 4.308 15.265.694 4.537 2.19 8.648 3.797 12.934C46 491 46 491 45 493l-2-6H32v36h28l-1-4 4 4-1 2c-20.696.133-41.32-.155-62-1v-2h29v-35H0v-2h30l-1-35-29-1v-1h28z"/><path fill="#fdfdfe" d="M107 337h35v15l-3.656.55-4.844.762-2.398.358c-3.906.624-7.464 1.376-11.133 2.873C116 358 116 358 107 359z"/><path fill="#f7f7f8" d="M449.563 561.938 453 562c.107 9.396-.007 18.64-1 28l2.633-1.059 3.492-1.379 3.445-1.37c3.172-1.102 6.11-1.753 9.43-2.192v-2c6.75-3 6.75-3 9-3v19h-35l-.062-17.437-.028-5.51-.008-4.3-.015-2.274c0-1.826.05-3.653.113-5.479 1-1 1-1 4.563-1.062"/><path fill="#fdfdfd" d="m470.371 523.863 2.129.012 2.129-.012c5.244.01 5.244.01 6.371 1.137.089 2.594.115 5.16.098 7.754l-.005 2.35c-.005 2.486-.018 4.972-.03 7.458q-.009 2.523-.014 5.045c-.01 4.131-.03 8.262-.049 12.393h-16q-.25-7.449-.482-14.899-.08-2.535-.166-5.072-.122-3.637-.23-7.275l-.083-2.304A155 155 0 0 1 464 525c1.756-1.756 4.036-1.132 6.371-1.137"/><path fill="#fcfcfd" d="M144 74h18c2.073 19.412 2.073 19.412-1.31 25.267-3.598 4.17-7.837 7.18-12.69 9.733h-4z"/><path fill="#f8f8f9" d="M483 186h35v22c-4.386-1.462-8.237-2.969-12.375-4.937-7.62-3.547-14.234-6.18-22.625-7.063-1-1-1-1-1.125-4.437C482 188 482 188 483 186"/><path fill="#fbfbfb" d="M142 376q.037 7.022.055 14.044.008 2.391.02 4.781c.013 2.287.018 4.573.023 6.859l.015 2.171c0 1.716-.051 3.43-.113 5.145-1.973 1.973-5.685 1.185-8.375 1.188l-2.078.037c-3.74.01-5.357-.098-8.547-2.225-1.241-7.795-.429-15.39 4-22 2.158-2.564 4.466-4.81 7-7l2.188-1.937C138 376 138 376 142 376"/><path fill="#fdfdfd" d="m150.271 223.861 2.229.006 2.275-.003q2.385 0 4.772.006c2.443.005 4.885 0 7.328-.007q2.313 0 4.625.004l2.229-.006c5.156.024 5.156.024 6.271 1.139v13l-36 1c0-15.11 0-15.11 6.271-15.139"/><path fill="#fafafa" d="M445 215h36v11c-10.356 5.441-21.35 6.928-32.937 4L445 229z"/><path fill="#fcfcfd" d="M180 244v16q-7.449.036-14.899.055-2.535.008-5.072.02c-2.425.013-4.85.018-7.275.023l-2.304.015c-1.817 0-3.634-.051-5.45-.113-1-1-1-1-1.098-3.066l.036-2.497.027-2.503L144 250c5.419-2.171 10.562-3.72 16.313-4.687l2.224-.386c5.877-.96 11.504-1.179 17.463-.927"/><path fill="#fdfdfd" d="M148.326 411.886q2.214 0 4.428.016l2.35.005c2.486.005 4.972.018 7.458.03q2.523.008 5.045.014 6.197.017 12.393.049v13c-4.19 2.095-9.657 1.186-14.266 1.185-2.028.002-4.056.02-6.084.04l-3.888.005-3.564.013c-3.152-.24-5.36-.896-8.198-2.243a920 920 0 0 1-.063-5.438l-.035-3.058c.15-3.829.488-3.483 4.424-3.618"/><path fill="#f8f8f9" d="M293 538v22h-35c0-4 0-4 2.438-6.812C265.95 548.715 276.834 543 284 543v-2q1.968-.753 3.938-1.5l2.214-.844C292 538 292 538 293 538"/><path fill="#f9f9fa" d="m462.875 282.688 2.316-.05c5.573-.004 9.708 1.108 14.809 3.362 2.603 2.603 1 7.318 1 11h-36c0-8 0-8 1.125-10.375 4.769-4.133 10.776-3.962 16.75-3.937"/><path fill="#fcfcfc" d="M445 395c8.003-.636 14.815.158 22.5 2.313l2.318.645c8.31 2.461 8.31 2.461 11.182 5.042.08 2.332.085 4.668 0 7q-7.449.037-14.899.055-2.535.008-5.072.02c-2.425.013-4.85.018-7.275.023l-2.304.015c-1.817 0-3.634-.051-5.45-.113-1-1-1-1-1.098-4.16l.036-3.902.027-3.91z"/><path fill="#fafafb" d="M214 581h3v16h-35v-9l3.438-.437c3.37-.175 3.37-.175 4.562-1.563 1.784-.355 3.578-.658 5.375-.937l3.262-.524L202 584q3.096-.52 6.188-1.062l2.73-.473c2.06-.265 2.06-.265 3.082-1.465"/><path fill="#f7f7f8" d="M419 172c3.079 1.38 5.243 3.001 7.688 5.313 8.737 7.78 18 11.087 29.625 10.937l2.233-.012c5.21-.082 10.16-.649 15.255-1.8C476 186 476 186 480 186v9q-7.787.224-15.576.33-2.642.044-5.283.123c-13.129.38-22.774-.795-33.141-9.703-3.648-3.97-5.358-8.682-7-13.75"/><path fill="#f4f4f5" d="M73.143 147.886q2.087 0 4.173.016l2.216.005c2.343.005 4.687.018 7.03.03q2.379.008 4.756.014 5.841.017 11.682.049l1 3-2.447.244c-3.644.368-7.286.75-10.928 1.131l-3.852.383-3.671.39c-1.121.116-2.242.23-3.396.35-2.845.264-2.845.264-4.706 2.502-1.69 8.302 1.713 14.151 6 21 4 6.873 4 6.873 4 8H69q-.036-7.663-.055-15.326-.008-2.609-.02-5.218c-.013-2.494-.018-4.989-.023-7.483l-.015-2.37c0-1.869.051-3.736.113-5.603 1-1 1-1 4.143-1.114"/><path fill="#e9e9ec" d="M195 138c6.172 2.26 11.19 5.57 16 10-1 3-1 3-2.574 3.95-10.448 3.65-21.177 3.017-31.426-.95-.738-2.23-.738-2.23-1-5 4.691-6.91 10.894-9.887 19-8"/><path fill="#fdfdfd" d="M144 584c12.08.746 24.013 2.367 36 4v9h-36z"/><path fill="#d3d3d8" d="M182.438 242.813q2.138.022 4.275.04 5.144.051 10.287.147v1h-15v17h35v1l-101 1c2.686-2.686 3.805-3.53 7.125-4.875 3.172-1.34 6.106-2.8 9.063-4.562 15.622-8.8 32.66-11.082 50.25-10.75m-23.813 3.062-2.63.526c-4.177.877-8.092 1.816-11.995 3.599q-.04 2.219-.062 4.438l-.036 2.496c-.135 2.058-.135 2.058 1.098 3.066 2.594.089 5.16.115 7.754.098l2.35-.005c2.486-.005 4.972-.018 7.458-.03q2.523-.008 5.045-.014c4.131-.01 8.262-.03 12.393-.049v-16c-7.42-.436-14.128.416-21.375 1.875"/><path fill="#fafafa" d="M148.326 335.886q2.214 0 4.428.016l2.35.005c2.486.005 4.972.018 7.458.03q2.523.008 5.045.014 6.197.017 12.393.049c-.297 2.886-.297 2.886-1 6-2.592 1.46-4.653 2.364-7.438 3.25l-2.203.756c-8.102 2.711-15.78 4.462-24.359 3.994-1-1-1-1-1.133-3.688l.008-3.312-.008-3.313c.196-3.967.39-3.662 4.46-3.8"/><path fill="#fdfdfd" d="M107 206c3.157.79 5.119 1.547 7.938 2.938 8.435 3.51 18.051 3.431 27.062 4.062v9h-35z"/><path fill="#f9f9fa" d="M69 536c3.894.515 5.799 1.314 8.488 4.168l1.893 1.959 1.931 2.06c4.464 4.713 8.847 8.891 14.208 12.58L97 558v2c-4.48.029-8.958.047-13.437.063l-3.877.025-3.682.01-3.412.016C70 560 70 560 69 559a91 91 0 0 1-.098-5.129l.01-3.135.025-3.298.014-3.311q.018-4.064.049-8.127"/><path fill="#ededed" d="m296 534 2 1-2 3a110 110 0 0 0-.319 8.235l-.03 2.543c-.031 2.776-.048 5.552-.065 8.327l-.059 5.772c-.051 5.065-.09 10.13-.128 15.195-.04 5.168-.091 10.336-.141 15.504Q295.114 608.788 295 624h-2c-1.23-20.726-.772-41.272 0-62q-7.395.178-14.789.372-2.516.066-5.031.125-3.615.088-7.23.187l-2.274.05c-3.133.09-5.683.268-8.676 1.266l-1-1a81 81 0 0 0-4.691-.316l-2.862-.127-3.01-.12-3.021-.13q-3.708-.16-7.416-.307c3.294-1.703 6.5-2.827 10.063-3.875 5.366-1.605 10.582-3.436 15.792-5.488C261 552 261 552 263 553l-2.5 1.875L258 557v2l35 1-1-21-2-1z"/><path fill="#e7e7e8" d="M454 394v1h-9l1 14 35 1-1-7c-1.936-1.513-1.936-1.513-4-2 2-1 2-1 3.945-.441l2.18.878 2.195.872L486 403l-4 1 .508 3.486c.533 4.286.537 8.425.37 12.733l-.07 2.252q-.116 3.514-.245 7.029-.081 2.402-.159 4.805-.193 5.848-.404 11.695l-3-3 1-2c.155-2.177.25-4.358.316-6.54l.116-3.552.13-4.533L481 412l-31 1 1 2c-2.957-1.42-5.71-3.022-8.477-4.785l-2.53-1.608-2.618-1.67-5.164-3.285-2.303-1.469c-1.89-1.212-1.89-1.212-3.908-2.183v-3c7.746-4.842 19.214-3.096 28-3"/><path fill="#f5f5f7" d="M445 261h35c1.322 2.645 1.097 4.678 1.063 7.625l-.028 3.04L481 274c-6.166.402-11.177-1.032-17-3v-2l-19-1z"/><path fill="#fafafb" d="m240 35.867 2.438-.004 2.562.012 2.563-.012 2.437.004 2.25.004C254 36 254 36 255 37c.279 3.638.232 7.29.25 10.938l.063 3.115.015 2.974.028 2.742L255 59c-3 2-3 2-5.001 1.882-2.657-1.172-3.454-2.54-4.98-4.995l-1.587-2.533-1.62-2.666c-.545-.869-1.091-1.737-1.654-2.631-4.594-7.418-4.594-7.418-5.158-11.057 1.522-1.522 2.882-1.13 5-1.133"/><path fill="#f0f0f2" d="m390 307 3.625.938c6.383 1.44 12.857 1.71 19.375 2.062v1h-5c.07 3.075.248 6.011 1 9 2.39 2.139 2.39 2.139 5 3-2 1-2 1-4.8.11l-3.512-1.36c-6.783-2.55-13.596-4.255-20.688-5.75l-1.945-.543c-2.92-.65-5.824-.81-8.805-1.02l-3.547-.253L368 314v-6q3.906-.04 7.813-.062l2.236-.026c3.25-.015 5.845.053 8.951 1.088v2h3z"/><path fill="#f6f6f7" d="M182 412h35c-1 4-1 4-2 6-10.605 4.134-21.611 6.518-33 6z"/><path fill="#fcfcfc" d="M105 272v25H82c2-7 2-7 4.14-8.457L89 287c2.7-2.447 5.215-5.072 7.75-7.687q2.02-2.072 4.047-4.137l1.792-1.847C104 272 104 272 105 272"/><path fill="#e2e2e4" d="M479 505c2.755 1.377 2.944 3.224 3.904 6.016l.659 1.984c1.164 4.331 1.164 4.331 3.437 8l2-2v4h24l1-3-1 7-1-3-30 1v35h11c-2.501 5.16-6.545 8.534-11 12h-1v-10h-17v-29h1v27h16l-1-35h-15l-1 7h-1l-1-10 18 1z"/><path fill="#f8f8f9" d="m516 215 2 1v6q-7.449.037-14.899.055-2.535.008-5.072.02c-2.425.013-4.85.018-7.275.023l-2.304.015c-1.817 0-3.634-.051-5.45-.113-1-1-1-1-1.062-4.062L482 215c10.365-4.523 23.766-5.222 34 0"/><path fill="#fdfdfd" d="M61 337h6v35H57c-.574-21.501-.574-21.501 3-32z"/><path fill="#dbdbde" d="M479 359c4.87 4.566 8.892 9.75 13 15l-1 2-1-1h-7v19c-3.975-3.313-6.533-5.563-9.586-9.395-2.224-2.525-4.78-4.635-7.351-6.796-2.46-2.156-4.75-4.497-7.063-6.809l22 1c-.71-8.219-.71-8.219-2-13"/><path fill="#eaeaee" d="m294 352 .375 1.875c.497 2.316.497 2.316 2.625 4.125-20.943 21.343-20.943 21.343-31 29q-2.816 2.279-5.625 4.563C256.127 395 256.127 395 255 395v-7l-3-1 1.538-.927c15.24-9.246 30.379-18.948 40.462-34.073"/><path fill="#efefef" d="M443 74h2v35h35c1.586 3.173 1.12 6.588 1.098 10.07l-.005 2.413c-.005 2.547-.018 5.095-.03 7.642q-.009 2.587-.014 5.176A5665 5665 0 0 1 481 147h-1v-35h-35v34h-2z"/><path fill="#f8f8f9" d="M423 148c3.146-.029 6.292-.047 9.438-.062l2.72-.026 2.588-.01 2.396-.016C442 148 442 148 443 149c.087 1.562.107 3.127.098 4.691l-.01 2.862-.026 3.01-.013 3.021q-.018 3.708-.049 7.416c-4.37-.718-6.005-1.57-8.875-5l-2.055-2.445L430 160l-2.07-2.492C423 151.42 423 151.42 423 148"/><path fill="#eeeef1" d="M407 343v9l3.625-.062c3.555-.007 6.88.363 10.375 1.062v1l-1.917.028c-22.49.329-22.49.329-43.892 6.667C372 362 372 362 369 361c3.63-2.72 7.299-5.378 11-8l2.43-1.727C389.308 346.757 398.65 343 407 343"/><path fill="#fcfcfc" d="M145 213q6.03.141 12.06.317 2.05.057 4.097.105c1.971.046 3.942.105 5.913.164l3.587.095c3.387.323 6.172 1.115 9.343 2.319v6h-35z"/><path fill="#f9f9fa" d="M414 242c2.19 1.054 4.236 2.153 6.281 3.473 6.756 3.795 15.083 4.793 22.719 5.527v9q-3.812.08-7.625.125l-2.16.05c-4.444.042-8.122-.234-12.215-2.175-2.117-2.172-2.117-2.172-3.875-4.75l-1.805-2.547c-1.526-3.124-1.571-5.27-1.32-8.703"/><path fill="#f3f3f5" d="M307 88c2.739 1.079 5.334 2.178 7.938 3.563C320.544 94.04 326.97 93.758 333 94l-1 11h15c-5.947 3.965-15.35 2.66-22.219 1.418-8.44-2.596-13.013-8.267-17.781-15.418z"/><path fill="#f9f9f9" d="M178 355h2q.04 3.969.063 7.938l.025 2.287A183 183 0 0 1 180 371c-1 1-1 1-3.684 1.114l-3.539-.016-3.818-.01-4.022-.026q-2.016-.008-4.033-.013A3769 3769 0 0 1 151 372c2.973-2.415 5.739-4.569 9.188-6.25l2.042-1.016C164 364 164 364 166 364v-2c3.51-2.613 6.91-4.48 11-6z"/><path fill="#efefef" d="M180 299h2v35h5c-4.75 4.875-4.75 4.875-7 6v-4l-35 1v12h12c-2.869 1.913-4.259 2.418-7.535 3.035l-2.705.514-2.822.514-2.74.525c-6.048 1.128-12.069 1.9-18.198 2.412l1-2c2.004-.633 2.004-.633 4.563-1.125l2.503-.508c3.619-.453 7.287-.367 10.934-.367v-18h38z"/><path fill="#f6f6f7" d="M517 535h1v25h-17c2.25-6.748 2.25-6.748 4.129-9.578l1.197-1.828 1.236-1.844c2.897-4.27 2.897-4.27 5.438-8.75h3z"/><path fill="#ededef" d="M421 469c9.38-.499 18.62.443 27 5l-3 1v15l-2.875-2.5c-9.99-8.568-9.99-8.568-21.125-15.5z"/><path fill="#ededf0" d="M292 273c5.633 4.506 5.633 4.506 7.719 7.54l1.38 1.995 1.401 2.09 1.458 2.149C313 300.296 313 300.296 313 305c-3.177-1.415-5.406-3.129-7.937-5.5-5.732-5.214-11.883-9.838-18.063-14.5 3 0 3 0 5 1z"/><path fill="#f8f8f9" d="M446 525c4.516 3.518 4.99 7.066 5.75 12.438l.372 2.405c.975 6.753 1.203 13.336.878 20.157h-8q-.037-7.236-.055-14.471-.008-2.464-.02-4.927c-.013-2.356-.018-4.711-.023-7.067l-.015-2.238c0-1.766.051-3.532.113-5.297z"/><path fill="#f0f0f2" d="m370 118 2 1-2 2c-.371 2.52-.371 2.52-.414 5.445l-.117 3.262-.094 3.418-.117 3.441q-.142 4.216-.258 8.434l5-1c-2.518 3.123-3.726 3.945-7.75 4.75L363 149c-3.544-6.35-4.264-12.83-3-20 1.892-3.244 4.182-5.55 7-8a319 319 0 0 0 3-3"/><path fill="#f7f7f8" d="M503 374h15v25h-3l-1.5-3.687c-2.418-5.51-5.63-10.458-8.89-15.493C503 377 503 377 503 374"/><path fill="#ececec" d="M180 0h2v34h34v6l-1-4h-33v10l-2.187-2.25c-2.697-2.746-2.697-2.746-5.5-4.812C172 37 172 37 170 33h9z"/><path fill="#f0f0f0" d="M524.051 146.886q2.024 0 4.047.016l2.148.005c2.272.005 4.544.018 6.817.03q2.306.008 4.61.014 5.664.017 11.327.049v2h-32v35h32v3h-33q-.036-8.304-.055-16.608-.008-2.827-.02-5.654a2865 2865 0 0 1-.023-8.11l-.015-2.569c0-2.02.05-4.04.113-6.059 1-1 1-1 4.051-1.114"/><path fill="#d4d4d9" d="M408 524h39l-1 2c-.156 2.551-.258 5.08-.316 7.633l-.063 2.278q-.097 3.608-.183 7.214l-.131 4.887q-.161 5.994-.307 11.988h8l-2-23c3.824 3.824 3.115 9.835 3.139 15.001l-.006 2.163.003 2.288q0 2.378-.006 4.755c-.005 2.418 0 4.836.007 7.254q0 2.32-.004 4.64l.006 2.176c-.017 3.7-.257 7.125-1.139 10.723h-1l1-24-10 2v-39h-35z"/><path fill="#fafafa" d="M257 245c5.126 1.025 7.752 2.728 11.688 5.875l1.76 1.355c2.695 2.114 4.637 3.898 6.552 6.77-1 1-1 1-2.858 1.114l-2.396-.016-2.588-.01-2.72-.026-2.733-.013q-3.353-.02-6.705-.049z"/><path fill="#fbfbfc" d="m32 458 4 1c2.515 8.667 4.623 16.925 5 26h-9z"/><path fill="#eeeef1" d="M419 172c3.079 1.38 5.243 3.001 7.688 5.313 6.42 5.718 12.9 9.005 21.312 10.687l-3 1 1 6c-8.465-.368-15.234-4.762-20.937-10.875-3.104-3.792-4.646-7.456-6.063-12.125"/><path fill="#ececef" d="m155 561 3.727.84 4.898 1.097 2.45.553c8.157 1.824 15.945 2.744 24.3 3.072l3.098.131q3.763.159 7.527.307v1h-19l1 8c-5.452-1.493-10.195-2.965-15-6q-1.99-.749-4-1.437c-3.582-1.29-6.233-2.883-9-5.563z"/><path fill="#f3f3f3" d="M103 299h2c2 2 2 2 2.227 5.256q0 2.079-.032 4.158l-.006 1.96c-.01 2.417-.038 4.834-.064 7.251L107 334h35v1H69v-1h35z"/><path fill="#e8e8e9" d="m107 268 2 1-1 1c-.159 2.29-.251 4.584-.316 6.879l-.063 2.08q-.097 3.302-.183 6.603l-.131 4.467q-.161 5.486-.307 10.971l-2 1v-3l-27 1c2-5 2-5 5-7l-1 4h23l-1-24-17 17-2-1c6.827-7.804 13.743-14.675 22-21"/><path fill="#f3f3f5" d="m199.875 70.875 2.086.027c1.68.024 3.36.06 5.039.098-.715 1.934-.715 1.934-2 4-2.066.723-2.066.723-4.562 1.063l-2.727.472L195 77c-8.587 1.638-14.143 6.682-20 13a3120 3120 0 0 0-3 5h-2c1.208-8.594 7.61-15.084 13.91-20.625 5.06-3.33 10.062-3.649 15.965-3.5"/><path fill="#fafafa" d="M32 299h13c-1.125 5.624-1.125 5.624-3.031 8.7-.399.65-.797 1.302-1.207 1.974l-1.262 2.014A7222 7222 0 0 0 35 319l-1 2h-2z"/><path fill="#fbfbfc" d="M192.703 137.543c4.464.888 8.589 2.838 12.297 5.457l2 4h-25c1.36-6.796 3.315-9.832 10.703-9.457"/><path fill="#d5d5da" d="M483 214v7l35 1v-6l4 1 1-2c4.004 4.395 4.004 4.395 5 6l-1 3-1.812-1.937c-2.096-2.266-2.096-2.266-5.188-3.063v5l-3.073.06c-3.763.076-7.526.165-11.289.257q-2.442.059-4.885.105c-2.341.046-4.682.104-7.023.164l-2.206.035c-3.694.108-5.372.278-8.524 2.379l-2-1v-11l-2.258.496c-5.215.702-10.362.609-15.617.566l-3.242-.013q-3.941-.018-7.883-.049v-1q5.218-.254 10.438-.5l2.95-.145A319 319 0 0 1 483 214"/><path fill="#c6c6ce" d="m483 180 2 1-3 4h36v1h-35v9l8 1v1q-7.926.037-15.85.055-2.694.008-5.387.02c-2.589.013-5.178.018-7.767.023l-2.41.015c-4.635 0-9.013-.344-13.586-1.113v-1h34v-9l-8 1c3.467-2.774 7.064-4.96 11-7"/><path fill="#f3f3f3" d="m521 562 2 1-1 1a174 174 0 0 0-.316 7.316l-.063 2.216q-.098 3.515-.183 7.03l-.131 4.756c-.108 3.894-.207 7.788-.307 11.682h32v3h-32v24h-1q-.034-11.904-.052-23.808-.007-5.527-.023-11.055-.016-5.33-.02-10.659-.003-2.037-.01-4.075c-.008-1.897-.008-3.793-.009-5.69l-.006-3.277C520 563 520 563 521 562"/><path fill="#f0f0f0" d="M219 375h1v34h10v2a753 753 0 0 1-5.875 2.563l-3.305 1.44L218 416l-2-1 1-3h-35v-2l36-1z"/><path fill="#f5f5f6" d="M257 281c5.468 1.094 6.024 1.588 9.25 5.75l2.078 2.61C270 292 270 292 271 297h-14z"/><path fill="#cbcbd2" d="m442 212 6 2-3 1v14c5.884.857 11.56 1.125 17.5 1.063l2.492-.014q3.004-.02 6.008-.049c-2.61 2.61-4.462 2.258-8.018 2.278l-2.42-.028-2.468-.02c-9.902-.17-18.22-1.716-27.094-6.23v-2l-4-2 15-1z"/><path fill="#f8f8f9" d="M445 475c4.635.927 6.77 1.833 10.625 4.313l2.852 1.8c2.393 1.79 3.892 3.407 5.523 5.887l-3.648.113q-2.364.098-4.727.2l-2.406.068c-2.081.097-4.153.349-6.219.619l-2 3z"/><path fill="#efeff2" d="m436.75 394.875 3.547.055L443 395v12c-6.568-.286-11.885-2.862-17-7v-3c3.595-2.26 6.566-2.209 10.75-2.125"/><path fill="#e6e6e7" d="m67 530 5 5-3 1 1 23 6.168-.105q2.974-.032 5.947-.06 2.059-.022 4.118-.061c1.978-.037 3.956-.052 5.935-.067l3.602-.048c3.51.37 5.385 1.308 8.23 3.341-3.13 1.565-6.427 1.001-9.852.879l-2.345-.072q-3.714-.116-7.428-.245l-5.031-.158c-4.115-.128-8.23-.266-12.344-.404z"/><path fill="#52526e" d="m498 554 2 4c-7.94 9.57-16.11 17.765-27 24h-2v2h-2l-1-5 2.746-1.469c11.29-6.16 19.672-12.999 27.254-23.531"/><path fill="#dfdfe2" d="M519 525h1v37c-2.941.98-4.825 1.116-7.887 1.098l-2.842-.01-2.959-.025-2.994-.014q-3.66-.018-7.318-.049l5-7 1 2-1 2h17l-1-24-1 2h-2c1.418-4.472 3.113-8.711 5-13"/><path fill="#f8f8f9" d="M57 374h10c.958 7.543.958 7.543-1.71 11.602-2.01 2.283-3.972 4.429-6.29 6.398h-2z"/><path fill="#ececec" d="M518 260h35v1h-33v38l-10 1-1 2-2-5h11z"/><path fill="#f7f7f8" d="M466 375h15v14c-4.332-1.733-6.397-2.894-9.75-5.875l-2.36-2.055C467 379 467 379 466 375M73.598 260.902q2.232.01 4.465.036l2.298.013q2.82.02 5.639.049c-1.302 3.905-3.09 4.734-6.437 7.063C75.596 270.81 75.596 270.81 72 274h-3q-.04-2.97-.062-5.937l-.036-3.34c.149-4.135.416-3.704 4.696-3.82"/><path fill="#f4f4f6" d="M127 412h15v11c-6.445-.333-9.551-1.226-14-6z"/><path fill="#f1f1f3" d="M312.813 336.688 315 337c-1.417 3.252-3.125 5.314-5.687 7.75-4.007 3.896-7.693 7.996-11.313 12.25l-4-1c.75-5.25 2.051-7.404 6.313-10.625l2.44-1.73c1.943-1.422 3.416-2.79 4.997-4.582C310 337 310 337 312.813 336.688"/><path fill="#eaeaed" d="m294 352 .375 1.875c.497 2.316.497 2.316 2.625 4.125l-19 19-4-4 1.298-1.174c1.97-1.79 3.93-3.589 5.89-5.389l2.04-1.845c4.227-3.897 7.595-7.798 10.772-12.592"/><path fill="#f0f0f0" d="M483 334h35v3h-35v17h-1q-.04-4.437-.062-8.875l-.026-2.55-.01-2.442-.016-2.254C482 336 482 336 483 334"/><path fill="#d0d0d6" d="M124 409c3.292-.058 6.583-.094 9.875-.125.937-.017 1.874-.034 2.84-.05l2.715-.02 2.507-.032C144 409 144 409 146 411l-1 2c-.228 1.87-.41 3.747-.562 5.625l-.254 3.04L144 424c3.97.92 7.762 1.19 11.832 1.316l3.916.127 4.065.12 4.123.13q5.032.159 10.064.307v1q-6.375.112-12.75.165-2.163.022-4.326.061c-8.164.145-15.271.032-22.924-3.226l4-1v-11h-15l-1 2-2-2z"/><path fill="#d9d9dd" d="M69 313c1.275 2.55 1.026 4.165.879 7.008l-.147 2.988-.17 3.129-.158 3.152Q69.21 333.14 69 337h-8l-1 5c-1.469-4.56.075-7.927 1.688-12.25l.779-2.2C64.3 322.498 66.523 317.77 69 313"/><path fill="#ebebec" d="m255 243 4 2h-2v15l4.05-.219 7.932-.426 2.569-.136 2.364-.127c1.694-.075 3.39-.092 5.085-.092l1 2h-23l1 5c-5.233-1.64-10.152-3.39-15-6v-1h12z"/><path fill="#dddde1" d="M518 453h1v39h-1v-5h-24v9h-1l-2-27c3.254 4.882 2.656 10.209 3 16l23-1z"/><path fill="#cfcfd5" d="M124 146c-11.223 7.482-27.928 7.518-41 7v-1c7.028-.854 13.923-1.121 21-1l-1-2H69v-2a86620 86620 0 0 1 27.612-.573q5.041-.105 10.083-.208l3.154-.067c4.718-.096 9.432-.18 14.151-.152"/><path fill="#e7e7e8" d="M500 372h20v35c-3.375-4.5-3.375-4.5-4-8h2v-25h-15l-1 2z"/><path fill="#dadadd" d="m263 553-2.437 1.625c-3.028 2.806-3.288 4.343-3.563 8.375-2.641 0-5.25-.09-7.887-.219l-2.842-.136-2.958-.145-2.995-.145q-3.66-.176-7.318-.355c3.294-1.703 6.5-2.827 10.063-3.875 5.366-1.605 10.582-3.436 15.792-5.488C261 552 261 552 263 553"/><path fill="#f2f2f2" d="M107 597q7.395-.111 14.789-.165 2.516-.022 5.031-.061c2.41-.037 4.82-.054 7.23-.067.75-.015 1.501-.03 2.274-.047 2.9 0 5.122.012 7.655 1.512 1.424 2.55 1.36 4.458 1.314 7.371l-.03 3.252c-.024 1.12-.05 2.239-.076 3.393l-.04 3.427q-.054 4.193-.147 8.385h-3l-1-26h-34z"/><path fill="#b8b8c3" d="M179 224h3v15l3.5-.125c4.445-.016 8.237.907 12.5 2.125-2.482.86-3.99 1.002-6.606.547-4.045-.652-7.984-.776-12.074-.863l-2.463-.063q-3.865-.096-7.732-.184l-5.266-.13q-6.429-.16-12.859-.307c3.493-2.329 4.86-2.236 8.98-2.195l3.526.02 3.682.05 3.716.027c3.032.024 6.064.06 9.096.098z"/><path fill="#aaaab8" d="m385 351-1 3 1.69-.217c7.49-.862 14.903-.898 22.435-.846l3.766.014q4.555.018 9.109.049v1l-1.917.028c-22.49.329-22.49.329-43.892 6.667C372 362 372 362 369 361q2.655-1.938 5.313-3.875l2.988-2.18C382.775 351 382.775 351 385 351"/><path fill="#e3e3e5" d="M232 34h25v21l7-1c-2 2-2 2-9 4l-1-21h-21z"/><path fill="#f0f0f0" d="M405 74h3v35h-3z"/><path fill="#eee" d="m59 519 4 4-1 2c-20.696.133-41.32-.155-62-1v-2c20.033-.128 39.983.11 60 1z"/><path fill="#f2f2f4" d="M330 512v11h-14c3.427-5.667 6.848-11 14-11"/><path fill="#f1f1f1" d="M142 0h3v34h-3z"/><path fill="#f4f4f5" d="M142 251v9h-17c9.865-9.865 9.865-9.865 17-9"/><path fill="#e3e3e5" d="M414 141c2.19 1.017 3.966 1.97 5.802 3.556 2.746 1.804 4.357 1.791 7.62 1.737l2.8-.023c1.746-.04 1.746-.04 3.528-.083L445 146l1 28c-5-2-5-2-6-4h3l-1-21-19-1-1 2c-2.932-2.853-5.643-5.65-8-9"/><path fill="#d9d9dd" d="M368 74h2v27h8c3 1 3 1 5 2v1h-25c3-2 3-2 10-2z"/><path fill="#e9e9e9" d="M220 565v34l-3 1c-1.349-23.11-1.349-23.11 0-33h-11v-1c4.83-.788 9.032-1 14-1"/><path fill="#d2d2d8" d="M281 322c2.576 4.516 2.331 8.54 2.313 13.625l.048 2.64.002 2.524.01 2.303L283 345l-3 2-2-7h-2l-2-6h8l-.5-1.5c-.707-3.534-.56-6.897-.5-10.5"/><path fill="#dadade" d="m445 287 2 1-1 1a104 104 0 0 0-.562 5.063l-.254 2.785L445 299q-2.906.252-5.812.5l-3.27.281C433 300 433 300 430 300c4.698-4.918 9.335-9.223 15-13"/><path fill="#f8f8f9" d="M182 216c18.141 1.141 18.141 1.141 23 6h-23z"/><path fill="#e8e8e9" d="M141 250h3l1 12-29 1c3.226-3.226 5.751-4.455 10-6l2 1-1 1 15 1z"/><path fill="#cfcfd6" d="M142 334h3v15h12c-2.869 1.913-4.259 2.418-7.535 3.035l-2.705.514-2.822.514-2.74.525c-6.048 1.128-12.069 1.9-18.198 2.412l1-2c2.004-.633 2.004-.633 4.563-1.125l2.503-.508c3.619-.453 7.287-.367 10.934-.367z"/><path fill="#ededee" d="M217 0h3v22l3 1-3 1c-.802 1.874-.802 1.874-1.187 4.063-.16.733-.318 1.466-.481 2.222L218 32h-1z"/><path fill="#e0e0e2" d="M104 563h2v2l2.438.375L111 566l1 2-5-1v32h-4l1-2c.087-2.554.116-5.08.098-7.633l-.005-2.278c-.005-2.405-.018-4.81-.03-7.214q-.009-2.444-.014-4.887-.017-5.994-.049-11.988"/><path fill="#e9e9ea" d="M232 257a250 250 0 0 1 6 4v1c-18.68.195-37.332-.405-56-1v-1l49-1z"/><path fill="#ededed" d="M445 222h36l-1 5-1-3h-34z"/><path fill="#f6f6f7" d="M483 289c8.129 1.32 8.129 1.32 11.563 4 1.437 2 1.437 2 1.437 4h-13z"/><path fill="#e5e5e7" d="m520 408 3 1c2.283.151 4.569.249 6.855.316l2.005.063q3.164.097 6.327.183l4.295.131q5.259.16 10.518.307v2h-30l-1 4z"/><path fill="#aaaab8" d="M21 353c.905 2.955 1.015 5.016.441 8.043C18.53 378.059 18.694 394.801 19 412h-1c-1.072-7.623-1.154-15.184-1.13-22.869q.005-3.232-.007-6.463 0-2.053.004-4.106l.004-3.746C17 372 17 372 18 371c.375-2.647.706-5.282 1-7.937.867-7.797.867-7.797 2-10.063"/><path fill="#e8e8e9" d="m141 374 4 1-1 34h-2v-33l-2-1z"/><path fill="#f0f0f0" d="M480 600h3v24h-3z"/><path fill="#dddde1" d="m334 506 2 1-1.457 1.547c-2.06 3.276-2.053 5.86-2.23 9.703l-.2 3.828L332 525h-22l6-5 2 1-1 1 13 1v-11l-2-1z"/><path fill="#dcdce0" d="M442 339c2.438.813 2.438.813 5 2l1 3h-3v18c-6.75-2.25-6.75-2.25-10-5 2.763.523 5.326 1.109 8 2v-16l-7-1c2.49-.687 4.379-1 7-1z"/><path fill="#f3f3f5" d="M317 74h13v7c-3.187.313-3.187.313-7 0-2.63-2.173-4.473-3.947-6-7"/><path fill="#e6e6e7" d="m249 371 1 2c-.937 2.625-.937 2.625-2 5l-1-4h-30v-2z"/><path fill="#d3d3d8" d="m199.875 70.875 2.086.027c1.68.024 3.36.06 5.039.098-.617 1.922-.617 1.922-2 4-2.82.828-2.82.828-6.125 1.25l-3.32.453L193 77l1-2c-3.485-.427-6.019-.648-9.023 1.336A85 85 0 0 0 180 81l-2-1a293 293 0 0 1 3.625-3.375l2.04-1.898c5.049-3.733 10.116-4.006 16.21-3.852"/><path fill="#e5e5e6" d="m82 293 1 2-1 2h25l-1 5-1-3-27 1c2-5 2-5 4-7"/><path fill="#e9e9e9" d="m433 333 3.773.465c8.589.859 17.229.902 25.852 1.098l5.355.13q6.51.16 13.02.307l-1 2h-38v2c-3.937-1.312-6.227-2.92-9-6"/><path fill="#eaeaea" d="m483 180 2 1-3 4h36v1l-46 1c3.65-2.737 6.97-4.91 11-7"/><path fill="#c7c7d0" d="M323 94h10l-1 11h15c-3.737 2.491-6.679 2.296-11 2.25l-2.195.023c-3.799-.014-5.573-.119-8.805-2.273h5V95h-7z"/><path fill="#5f5f7a" d="m325 329 2 1-25 25-2-1a318 318 0 0 1 25-25"/><path fill="#c4c4cd" d="M37 463c3.421 3.421 3.44 4.318 3.938 8.938.768 5.908 2.267 11.13 4.355 16.699C46 491 46 491 45 493l-2-6H32v-2h9z"/><path fill="#eaeaea" d="m84 182 4 4c-3.021 1.51-6.124 1.145-9.437 1.125l-2.404-.006C61.437 187.022 46.714 186.464 32 186v-1q7.493-.217 14.984-.427 2.538-.071 5.076-.146c10.65-.31 21.285-.5 31.94-.427z"/><path fill="#e1e1e4" d="m296 534 2 1-2 3c-.367 2.613-.367 2.613-.414 5.543l-.117 3.252-.094 3.393-.117 3.427q-.142 4.192-.258 8.385h-3v-23l-2-1z"/><path fill="#bdbdc7" d="m422.125 200 1.875 1c-3.003 1.502-5.79 1.093-9.125 1.063l-3.883-.028L408 202v5l-8 1c.335-3.13 1-4 3.375-6.187 5.543-3.828 12.447-3.83 18.75-1.813"/><path fill="#e8e8e9" d="m459 371 21 1v3l-2.809.148-3.628.227-3.622.21c-.97.138-1.94.274-2.941.415l-1 2a858 858 0 0 1-3.5-2.937l-1.969-1.653L459 372z"/><path fill="#e6e6e7" d="M518 184h2l1 29-6-5 2-1z"/><path fill="#828297" d="M148 583q3.969.21 7.938.438l2.287.119c5.662.33 5.662.33 6.775 1.443 2.448.088 4.868.115 7.316.098l2.216-.005c2.343-.005 4.687-.018 7.03-.03q2.379-.009 4.756-.014 5.841-.017 11.682-.049v1c-16.298 2.48-34.07 2.483-50-2z"/><path fill="#ceced5" d="M438 394h16v1h-9q.212 3.407.438 6.813c.08 1.264.162 2.529.246 3.832.188 3.347.188 3.347 1.316 6.355-3.937-1.312-6.227-2.92-9-6l5 1v-12h-5z"/><path fill="#dfdfe1" d="M106 226h1v24l4 1-7 2c.138-4.313.287-8.625.438-12.937l.119-3.733.127-3.545.11-3.285C105 227 105 227 106 226"/><path fill="#eaeaeb" d="M528 222h25v2h-22v4h-2z"/><path fill="#e6e6ea" d="M419 172c3.158 1.398 5.323 3.052 7.75 5.5l1.86 1.844C430 181 430 181 430 183l2 1c-2.597 1.058-3.804 1.064-6.5.188-3.775-3.304-4.93-7.513-6.5-12.188"/><path fill="#c8c8d0" d="M434 470c5.277.539 9.256 1.773 14 4l-3 1v15l-6-5 2-1 2 1v-12l-9-2z"/><path fill="#e9e9ea" d="M508 407c2 3 2 3 2 5h-27v-2h25z"/><path fill="#c7c7cf" d="m185 138 2 1-1.937 1.75c-2.098 2.288-2.458 3.327-3.063 6.25l-2 1c1.933 2.025 3.632 3.421 6 5-6.625-.75-6.625-.75-10-3 .476-4.377 1.669-6.065 5.063-8.812l2.222-1.833z"/><path fill="#d5d5da" d="M403 310h10v1h-5c.07 3.075.248 6.011 1 9 2.39 2.139 2.39 2.139 5 3-2 1-2 1-4.383.223l-2.742-1.16-2.758-1.153L402 320l3-1v-8z"/><path fill="#c1c1c9" d="m370 118 2 1-2 2c-.371 2.52-.371 2.52-.414 5.445l-.117 3.262-.094 3.418-.117 3.441q-.142 4.216-.258 8.434l5-1c-2.518 3.123-3.726 3.945-7.75 4.75L363 149v-3l5 1-.14-2.34c-.198-3.49-.373-6.98-.548-10.472l-.22-3.682-.166-3.526-.175-3.253c.249-2.727.249-2.727 1.754-4.6z"/><path fill="#cfcfd5" d="m405 121 4 2h-2v14l3 1-2 1-3-1c-2.393-.226-4.79-.408-7.187-.562l-3.856-.254L391 137v-1h14z"/><path fill="#e9e9e9" d="M442 516c2 1.75 2 1.75 4 4v4h-38v-1h35z"/><path fill="#d4d4d9" d="M372 489h-2v34h-2v-33l-5 2c-2.312-.375-2.312-.375-4-1q2.119-.799 4.25-1.562l2.39-.88c2.551-.603 3.913-.405 6.36.442"/><path fill="#e9e9e9" d="M145 335h41l-5 5-1-4h-35z"/><path fill="#d7d7dc" d="m255 313 2 1c.563 1.813.563 1.813 1 4l.563 1.75c.955 4.913 1.31 9.942-1.563 14.25h-2z"/><path fill="#e2e2e5" d="M293 36h2l1 24-8-4 2-1 3 1z"/><path fill="#c7c7ce" d="m484 517 3 4 2-2v4h24l1-3-1 7-1-3-26 1c-2-4-2-4-2-8"/><path fill="#dcdcdf" d="M517 443h1v6l-31 1v6l-2-1-2-7h34z"/><path fill="#f1f1f1" d="M0 372h17v3H0z"/><path fill="#e2e2e4" d="M189 330h2l-1 5h30v2h-29l-1 2h-2c-.098-6.152-.098-6.152 0-8z"/><path fill="#d9d9dd" d="m292 273 5 4-1 2h-1v11c-3.563-1.782-5.356-3.168-8-6l5 2z"/><path fill="#8d8b9b" d="m397.688 181.875 3.574.055L404 182l1 3-13 2 1-3h-5c3.632-2.421 5.383-2.21 9.688-2.125"/><path fill="#5e5e79" d="m158 99 2 1-19 19c0-5.51 5.305-9.23 9-13a176 176 0 0 1 8-7"/><path fill="#c7c7d0" d="M179 567h22v1h-19l1 8-10-3c4-1 4-1 7 0z"/><path fill="#898898" d="m354.313 194.625 2.244.082c1.815.07 3.63.178 5.443.293v1h-15l-2 4-1 1a104 104 0 0 0-.562 5.063l-.254 2.785L343 211l-2-1a99 99 0 0 1-.312-4.125l-.176-2.32c1.55-8.108 6.6-9.432 13.8-8.93"/><path fill="#e2e2e4" d="m141 581 7 2-4 1 .219 2.738.281 3.574.281 3.551A88 88 0 0 1 145 600l-3-1z"/><path fill="#ebebec" d="M232 34h22v2q-4.406.252-8.812.5l-2.526.145-2.432.136-2.237.127c-1.663.077-3.328.092-4.993.092z"/><path fill="#585874" d="m479 574 1 3a466 466 0 0 1-3.375 2.5l-1.898 1.406C473 582 473 582 471 582v2h-2l-1-5a805 805 0 0 1 4.375-2.5l2.46-1.406C477 574 477 574 479 574"/><path fill="#cdcdd5" d="m103 271 2 1-18 18-2-1c11.337-12.67 11.337-12.67 18-18"/><path fill="#5c5c76" d="M361 192c3.375.688 3.375.688 7 2 1.438 2.625 1.438 2.625 2 5l-8-2v-2h-14v-1h13z"/><path fill="#848395" d="M340 188h30v1l-9 1 2 2c-3.272-.278-6.542-.575-9.812-.875l-2.815-.238-2.705-.254-2.491-.222C343 190 343 190 340 188"/><path fill="#d8d8db" d="M414 141c2.19 1.017 3.966 1.97 5.802 3.556 2.746 1.804 4.357 1.791 7.62 1.737l3.105-.03c1.064-.024 2.127-.05 3.223-.076l3.27-.04q3.99-.054 7.98-.147v3l-22-1-1 2c-2.932-2.853-5.643-5.65-8-9"/><path fill="#ceced4" d="m395 108 13 1v7q-2.69-1.431-5.375-2.875l-3.023-1.617C397 110 397 110 395 108"/><path fill="#dddddf" d="m59 519 4 4-1 2H30v-3l30 1z"/><path fill="#f4f4f5" d="M482 562h8c-.38 2.755-.807 3.82-2.875 5.75C485 569 485 569 482 569z"/><path fill="#ececed" d="M463.012 485.48 464 487l-3.648.113q-2.364.098-4.727.2l-2.406.068c-2.081.097-4.153.349-6.219.619l-2 3v-6c2.604-.249 5.206-.475 7.813-.687l2.236-.221c5.5-.423 5.5-.423 7.963 1.388"/><path fill="#555572" d="M184 240q3.939.423 7.875.875l2.262.238c5.636.66 5.636.66 7.863 2.887l-26-1v-1h8z"/><path fill="#d4d4d9" d="m220 565-1 13h-2v-11h-11v-1a75.6 75.6 0 0 1 14-1"/><path fill="#d1d1d6" d="M180 412h2v12h7c-2 2-2 2-4.164 2.195l-2.461-.07-2.477-.055L178 426l2-1z"/><path fill="#f3f3f4" d="M175 36h7v10c-3.394-3.126-5.606-5.565-7-10"/><path fill="#b9b9c4" d="M307 293c2.748 3.402 6 7.485 6 12-2.992-1.364-5.29-2.95-7.75-5.125l-1.86-1.633L302 297l2-1 3 1z"/><path fill="#65657f" d="m494 168 2 1c-3.613 4.56-6.988 8.017-12 11-.312-2.262-.312-2.262 0-5 2.188-2.02 2.188-2.02 5-3.812l2.813-1.833z"/><path fill="#c1c1cb" d="m263 553-2.437 1.75c-2.542 2.231-3.214 2.995-3.563 6.25l-2-1v-3l-3.25 1.063c-3.537.884-4.498.966-7.75-.063q4.183-1.544 8.375-3.062l2.406-.893 2.305-.83 2.126-.778C261 552 261 552 263 553"/><path fill="#52526f" d="M462 342c4.644.893 8.764 2.557 11.875 6.188L475 350l-2 3-1.898-1.715-2.477-2.223-2.46-2.214C464.14 344.97 464.14 344.97 462 344z"/><path fill="#f4f4f6" d="M67 325v10h-5c.488-6.055.488-6.055 1-8 3-2 3-2 4-2"/><path fill="#eaeaeb" d="M500 298v1h-17l-1 2v-4a612 612 0 0 1 6.75-.625l3.797-.352c3.289-.022 4.763.197 7.453 1.977"/><path fill="#babac5" d="M177 81c1.086 3.766 1.086 3.766.313 5.875L176 89l-2 3.25-2 2.75h-2c.56-3.99 1.757-6.526 4.063-9.812l1.66-2.395z"/><path fill="#d3d3d8" d="m438 292 2 1-3 3 6 1v2q-2.406.253-4.812.5l-2.708.281C433 300 433 300 430 300z"/><path fill="#c5c5cd" d="M244 260c4.764-.19 8.649-.072 13 2 .664 2.078.664 2.078 1 4-4.72-1.543-9.417-3.078-14-5z"/><path fill="#bbbbc6" d="m155 561 14 3v1l-5 1v2c-3.44-1.242-6.252-2.557-9-5z"/><path fill="#d6d6da" d="m316 520 2 1-1 1h15v3h-22z"/><path fill="#d3d3da" d="M311 333c0 4.349-2.282 5.999-5.11 9.125-2.105 2.088-4.22 3.58-6.89 4.875 1.587-3.903 4.134-6.335 7.125-9.25l2.758-2.703z"/><path fill="#d8d8dc" d="m122 258 2 1-1 2h19v1l-26 1c3-3 3-3 6-5"/><path fill="#6d6d85" d="M408 117q1.758 1.428 3.5 2.875l1.969 1.617L415 123v2c-4.972-1.492-9.418-3.605-14-6 3.01-.934 3.867-1.044 7 0z"/><path fill="#6d6c83" d="m420 279 2 .438c3.656.685 7.306 1.124 11 1.562v2c-4.027 2.205-7.435 3.457-12 4l1-2c3.063-.625 3.063-.625 6-1v-2l-2.312-.375C423 281 423 281 420 279"/><path fill="#b9b9c2" d="m483 180 2 1-3 6h-10c3.65-2.737 6.97-4.91 11-7"/><path fill="#d6d6db" d="m430 181 8 4v1h-6v3c-3.161-1.37-3.993-1.99-6-5h5z"/><path fill="#d0d0d8" d="m138 376 2 1a1250 1250 0 0 1-5.375 5.5l-1.54 1.59c-1.323 1.342-2.701 2.63-4.085 3.91h-2c1.503-3.668 3.637-5.69 6.625-8.25l2.477-2.14z"/><path fill="#babac6" d="M200 242c4.97.514 9.29 1.234 14 3v2l-13-2z"/><path fill="#cdcdd3" d="M433 333q2.438.212 4.875.438c.905.08 1.81.162 2.742.246C443 334 443 334 445 335v2c-3 1-3 1-6 1-3.187-1.937-3.187-1.937-6-4z"/><path fill="#e5e5e6" d="m277 258 3 3-25 1v-2l1.912-.076q4.263-.175 8.526-.361l3.01-.12 2.86-.127 2.65-.11c2.035.012 2.035.012 3.042-1.206"/><path fill="#dcdcdf" d="m84 182 4 4c-2.349 1.174-3.738 1.115-6.352 1.098l-2.578-.01-2.695-.025-2.719-.014Q70.328 187.03 67 187v-3h17z"/><path fill="#f1f1f3" d="m482 366 5 1 1 5h-6z"/><path fill="#e5e5e6" d="M507 297h13v2l-2.152.148-2.785.227c-.917.07-1.834.14-2.778.21-.754.138-1.508.274-2.285.415l-1 2z"/><path fill="#d2d2d7" d="M259 384c-.087 1.46-.195 2.918-.312 4.375l-.176 2.46C258 393 258 393 255 395v-7l-3-1c4.75-3 4.75-3 7-3"/><path fill="#fafafb" d="M431 262h12v3c-7.5.375-7.5.375-12-3"/><path fill="#f9f9f9" d="M433 224h10v4c-6.625-.625-6.625-.625-10-4"/><path fill="#605f78" d="m394 188-3 1c-5.033 2.11-8.377 6.038-12 10 0-3 0-3 2.313-5.5L384 191l1.625-1.75c2.81-2.555 5-2.297 8.375-1.25"/><path fill="#9493a1" d="M399 151c-1.627 3.254-4.73 3.704-8 5l-3 1 1-5c3.473-1.158 6.36-1.069 10-1"/><path fill="#d1d1d6" d="m170 33 12 1v2l-2.937.375L176 37l-1 2a283 283 0 0 1-5-5z"/><path fill="#c7c7ce" d="m476 400 10 3-4 1 1 8h-3v-9l-4-2z"/><path fill="#717086" d="M276 97h3l1 13h-2l-.367-2.152-.508-2.785-.492-2.778L276 100l-2-1z"/><path fill="#f0f0f0" d="M142 213h3v9h-3z"/><path fill="#4f4f6b" d="m396.563 149.813 2.94-.043C402 150 402 150 404 152c-1 1-1 1-3.562 1.063L398 153v-1l-11 1c1.899-3.798 5.774-3.162 9.563-3.187"/><path fill="#cfcfd6" d="m179 145 1 3c1.872 2.128 3.603 3.402 6 5-6.625-.75-6.625-.75-10-3v-2h2z"/><path fill="#cbcbd2" d="m442 187 6 1-3 1 1 6-7-1 3-2c.25-2.584.25-2.584 0-5"/><path fill="#7c7b8e" d="m344 225 9 6-2 1-3-1-1 2c-3-4.625-3-4.625-3-8"/><path fill="#73738a" d="M483 227c-2.363 2.526-3.665 3.888-7 5v-2l-3-1c6.625-3.125 6.625-3.125 10-2"/><path fill="#efeff0" d="M520 219c2.886.398 3.822.79 5.75 3.063L527 224h-7z"/><path fill="#9090a3" d="M522 215c4.8 3.323 4.8 3.323 5.813 6.75L528 224l-8-6 2-1z"/><path fill="#d7d7db" d="M478 214h5v9l2 1-1 3-3-1v-11z"/><path fill="#eeeeef" d="m481 514 3 1 1 7h-4z"/><path fill="#d5d5da" d="M479 505c2 1 2 1 2.633 2.848l.492 2.214.508 2.223L483 514h-2v8h-1z"/><path fill="#f3f3f4" d="M69 374h6c-.75 1.938-.75 1.938-2 4-2.125.75-2.125.75-4 1z"/><path fill="#ceced5" d="m278 369 2 1-1 2 2 2-4 3-3-4z"/><path fill="#a1a1af" d="M442 339c2.438.813 2.438.813 5 2l1 3a340 340 0 0 1-4.312-.375c-.801-.07-1.602-.14-2.426-.21C439 343 439 343 436 341h7z"/><path fill="#fafafb" d="M440 292h3v5h-7l1-2h2z"/><path fill="#d6d6da" d="m480 261 2 1c.312 2.55.513 5.004.625 7.563l.117 2.154c.095 1.76.177 3.522.258 5.283l-5-2 3-1z"/><path fill="#cacad2" d="m294 352 .375 1.875c.497 2.316.497 2.316 2.625 4.125l-4 3-1-3-2 1a56.5 56.5 0 0 1 4-7"/><path fill="#d1d1d7" d="M443 224h2v5l3 1h-8l-1-2h4z"/><path fill="#fafafa" d="M255 557v3h-9c2.982-2.982 4.788-3 9-3"/><path fill="#8c8c9f" d="M462 342c3.669.706 6.705 2.277 10 4-2.516.899-3.607 1.162-6.125.125L464 345l-2-1z"/><path fill="#b1b1be" d="M467 240v2c-6.45 4.093-6.45 4.093-9.234 3.621L456 245a805 805 0 0 1 4.375-2.5l2.46-1.406C465 240 465 240 467 240"/><path fill="#78788f" d="M353 85c-3.558 2.263-6.125 2.073-10.25 1.625l-3.266-.336L337 86v-1q3.155-.29 6.313-.562l3.55-.317C350 84 350 84 353 85"/><path fill="#e4e4e6" d="M180 36h2v10l-3-3c.313-3.687.313-3.687 1-7"/><path fill="#cfcfd5" d="M222 410h8c-1.687 1.563-1.687 1.563-4 3-2.75-.312-2.75-.312-5-1z"/><path fill="#e0e0e2" d="m218 409 2 1v3l2 1-6 2z"/><path fill="#dddde0" d="M405 109h3v7l-4-2z"/><path fill="#e6e6e9" d="m181 80 3 2-6 4-1-3c1-2 1-2 4-3"/><path fill="#c1c1cb" d="m186 73 2 1-8 7-2-1z"/><path fill="#484867" d="m500 551 3 1c-.312 1.875-.312 1.875-1 4l-3 2-1-2c.938-2.625.938-2.625 2-5"/><path fill="#c1c1c9" d="M442 516c2 1.75 2 1.75 4 4v4h-3z"/><path fill="#dadadd" d="M180 335h6a283 283 0 0 1-5 5h-1z"/><path fill="#838398" d="M509 302c3 2 3 2 3.688 5.125L513 310l-5-5z"/><path fill="#dddde0" d="M518 216h2v2l2 1h-2v5h-2z"/><path fill="#c5c5cc" d="m439 484 6 1v5a318 318 0 0 1-6-5z"/><path fill="#61617b" d="M512 213c2.763.523 5.326 1.109 8 2l1-2 1 4c-3.793-1.002-6.715-1.81-10-4"/></svg>